<?xml version="1.0" encoding="UTF-8"?>
<svg id="Capa_1" xmlns="http://www.w3.org/2000/svg" xmlns:xlink="http://www.w3.org/1999/xlink" version="1.1" viewBox="0 0 2000 2000">
  <!-- Generator: Adobe Illustrator 29.6.0, SVG Export Plug-In . SVG Version: 2.1.1 Build 207)  -->
  <defs>
    <style>
      .st0 {
        fill: #d1ac36;
      }

      .st1 {
        fill: #1b3864;
      }

      .st2 {
        clip-path: url(#clippath);
      }
    </style>
    <clipPath id="clippath">
      <path class="st1" d="M545.45,888.14c-99.2-7.49-133.07,57.11-195.97,114.84-42.68,39.18-69.76,67.24-134.32,58.27-.41-7.25-.57-14.75-.32-22.26h0s-14.25,88.06,8.17,139.32c-3.63-8.82-6.01-16.45-4.28-18.11,22.05-1.46,50.22-.7,71.57-4.39,59.21-10.24,132.49-113.88,180.88-151.13,1.19-.91,19.85-17.76,38.67-15.13,24.88,3.48,45.49,20.37,45.49,45.49s-20.37,45.49-45.49,45.49c-20.59,0-37.97-13.69-43.57-32.46-.52-.12-.96-.33-1.51-.41l-40.88,43.14c44.07,50.21,93.33,86.62,163.22,61.52,32.89-11.81,63.66-47.19,73.4-82.06,24.3-86.99-11.7-174.29-115.05-182.1Z"/>
    </clipPath>
  </defs>
  <g>
    <g>
      <path class="st1" d="M545.45,888.14c-99.2-7.49-133.07,57.11-195.97,114.84-42.68,39.18-69.76,67.24-134.32,58.27-.41-7.25-.57-14.75-.32-22.26h0s-14.25,88.06,8.17,139.32c-3.63-8.82-6.01-16.45-4.28-18.11,22.05-1.46,50.22-.7,71.57-4.39,59.21-10.24,132.49-113.88,180.88-151.13,1.19-.91,19.85-17.76,38.67-15.13,24.88,3.48,45.49,20.37,45.49,45.49s-20.37,45.49-45.49,45.49c-20.59,0-37.97-13.69-43.57-32.46-.52-.12-.96-.33-1.51-.41l-40.88,43.14c44.07,50.21,93.33,86.62,163.22,61.52,32.89-11.81,63.66-47.19,73.4-82.06,24.3-86.99-11.7-174.29-115.05-182.1Z"/>
      <g class="st2">
        <polygon class="st1" points="510.75 1048.7 510.75 1178.3 381.12 1137.87 413.79 1060.39 468.77 1024.52 510.75 1048.7"/>
      </g>
    </g>
    <path class="st0" d="M567.77,1283.14c3.92,3.72-24.94,25.98-27.78,28.06-157.06,115.29-378.56,20.3-437.25-155.6-23.98-71.88-34.11-218.66,22.55-276.63,76.14-77.9,219.13-43.1,280.29,37.23l-62.65,57.84c-49.49-37.26-119.94-20.05-125.73,47.23-3.4,39.51-3.88,130.4,9.97,165.43,46.1,116.6,188.5,171.79,301.95,118.02,13.52-6.41,24.91-15.77,38.64-21.58Z"/>
    <circle class="st0" cx="230.53" cy="712.89" r="92.6"/>
    <circle class="st1" cx="531.29" cy="771.42" r="79.04"/>
  </g>
  <g>
    <g>
      <g>
        <path class="st1" d="M878.4,1359.2c-8.17,0-15.69-1.33-22.55-4.01-6.87-2.67-12.84-6.48-17.93-11.42-5.1-4.94-9.06-10.69-11.88-17.26-2.83-6.56-4.24-13.82-4.24-21.79s1.41-15.24,4.24-21.79c2.82-6.56,6.81-12.31,11.95-17.26,5.15-4.94,11.15-8.76,18.02-11.42,6.86-2.68,14.38-4.01,22.55-4.01,8.68,0,16.6,1.49,23.76,4.46,7.16,2.98,13.22,7.39,18.16,13.24l-12.71,11.96c-3.94-4.14-8.28-7.24-13.02-9.31-4.74-2.07-9.84-3.11-15.28-3.11s-10.62.91-15.21,2.72c-4.59,1.82-8.58,4.39-11.96,7.72-3.37,3.33-6.02,7.27-7.94,11.81-1.92,4.54-2.88,9.54-2.88,14.99s.95,10.44,2.88,14.98c1.92,4.54,4.56,8.48,7.94,11.81,3.38,3.33,7.37,5.91,11.96,7.72,4.59,1.82,9.66,2.72,15.21,2.72s10.54-1.03,15.28-3.1c4.74-2.07,9.08-5.22,13.02-9.46l12.71,11.96c-4.94,5.85-11,10.29-18.16,13.32-7.16,3.02-15.13,4.54-23.92,4.54Z"/>
        <path class="st1" d="M996.61,1359.2c-8.17,0-15.77-1.36-22.78-4.09-7.01-2.72-13.08-6.56-18.24-11.5-5.15-4.94-9.13-10.72-11.95-17.33-2.83-6.6-4.24-13.79-4.24-21.56s1.41-15.11,4.24-21.72c2.82-6.61,6.81-12.36,11.95-17.26,5.15-4.9,11.2-8.71,18.17-11.42,6.96-2.72,14.58-4.09,22.85-4.09s15.74,1.33,22.7,4.01c6.96,2.67,12.99,6.45,18.08,11.35,5.09,4.9,9.05,10.67,11.88,17.33,2.82,6.66,4.23,13.92,4.23,21.79s-1.41,15.11-4.23,21.72c-2.83,6.61-6.79,12.39-11.88,17.33-5.1,4.94-11.13,8.76-18.08,11.42-6.96,2.68-14.53,4.01-22.7,4.01ZM996.61,1341.95c5.35,0,10.26-.91,14.76-2.72,4.49-1.81,8.4-4.38,11.73-7.72,3.33-3.33,5.93-7.26,7.79-11.81,1.86-4.54,2.8-9.53,2.8-14.98s-.91-10.44-2.72-14.99c-1.82-4.54-4.42-8.47-7.79-11.81-3.38-3.33-7.32-5.9-11.81-7.72-4.5-1.81-9.41-2.72-14.76-2.72s-10.32.91-14.91,2.72c-4.59,1.82-8.55,4.42-11.87,7.79-3.33,3.38-5.95,7.32-7.87,11.81-1.92,4.5-2.88,9.46-2.88,14.91s.95,10.29,2.88,14.83c1.92,4.54,4.54,8.5,7.87,11.87,3.33,3.38,7.28,5.98,11.87,7.79,4.59,1.82,9.56,2.72,14.91,2.72Z"/>
        <path class="st1" d="M1081.96,1357.69v-105.94h16.2l66.44,81.72h-8.02v-81.72h19.37v105.94h-16.2l-66.29-81.72h8.02v81.72h-19.52Z"/>
        <path class="st1" d="M1244.96,1359.2c-8.28,0-16.17-1.19-23.69-3.55-7.52-2.37-13.55-5.42-18.08-9.16l6.81-15.28c4.23,3.33,9.48,6.1,15.74,8.32,6.25,2.22,12.66,3.33,19.22,3.33,5.55,0,10.03-.61,13.47-1.82,3.42-1.21,5.95-2.85,7.57-4.92,1.61-2.07,2.42-4.41,2.42-7.04,0-3.23-1.16-5.82-3.48-7.79-2.32-1.96-5.33-3.53-9.01-4.69-3.68-1.16-7.77-2.22-12.25-3.18-4.49-.95-8.98-2.14-13.47-3.55-4.49-1.41-8.6-3.2-12.33-5.37-3.73-2.16-6.74-5.07-9-8.7-2.28-3.63-3.41-8.27-3.41-13.93s1.54-11.02,4.62-15.81c3.08-4.79,7.77-8.63,14.07-11.51,6.3-2.87,14.3-4.31,23.98-4.31,6.36,0,12.66.81,18.92,2.42,6.25,1.61,11.7,3.94,16.34,6.96l-6.2,15.28c-4.74-2.82-9.63-4.92-14.68-6.28-5.04-1.36-9.89-2.05-14.52-2.05-5.35,0-9.74.66-13.17,1.97-3.43,1.31-5.93,3.05-7.5,5.22-1.56,2.17-2.34,4.56-2.34,7.19,0,3.23,1.13,5.83,3.41,7.79,2.27,1.97,5.24,3.51,8.93,4.62,3.68,1.11,7.79,2.17,12.33,3.17,4.54,1.01,9.03,2.19,13.47,3.55,4.44,1.36,8.53,3.13,12.26,5.3,3.73,2.17,6.73,5.05,9,8.63,2.27,3.58,3.4,8.15,3.4,13.69s-1.54,10.87-4.61,15.66c-3.08,4.79-7.79,8.63-14.16,11.5-6.36,2.88-14.38,4.32-24.06,4.32Z"/>
        <path class="st1" d="M1360.29,1359.2c-14.43,0-25.75-4.09-33.98-12.26-8.22-8.17-12.33-20.02-12.33-35.56v-59.63h19.68v59.02c0,10.9,2.34,18.82,7.03,23.76,4.7,4.94,11.33,7.41,19.9,7.41s15.19-2.47,19.83-7.41c4.64-4.94,6.96-12.86,6.96-23.76v-59.02h19.38v59.63c0,15.54-4.11,27.39-12.34,35.56-8.22,8.17-19.6,12.26-34.13,12.26Z"/>
        <path class="st1" d="M1441.86,1357.69v-105.94h19.68v89.29h55.39v16.65h-75.06Z"/>
        <path class="st1" d="M1561.58,1357.69v-89.29h-35.11v-16.65h89.9v16.65h-35.12v89.29h-19.67Z"/>
        <path class="st1" d="M1638.76,1357.69v-105.94h19.68v105.94h-19.68Z"/>
        <path class="st1" d="M1694.61,1357.69v-105.94h16.2l66.44,81.72h-8.02v-81.72h19.37v105.94h-16.2l-66.29-81.72h8.02v81.72h-19.52Z"/>
        <path class="st1" d="M1874.25,1359.2c-8.27,0-15.86-1.33-22.77-4.01-6.92-2.67-12.94-6.48-18.09-11.42-5.15-4.94-9.13-10.69-11.95-17.26-2.83-6.56-4.24-13.82-4.24-21.79s1.41-15.24,4.24-21.79c2.82-6.56,6.83-12.31,12.03-17.26,5.2-4.94,11.25-8.76,18.16-11.42,6.92-2.68,14.61-4.01,23.09-4.01s16.92,1.46,24.14,4.38c7.21,2.93,13.29,7.22,18.24,12.86l-12.41,12.11c-4.14-4.14-8.6-7.19-13.4-9.16-4.79-1.96-10.06-2.95-15.82-2.95s-10.82.91-15.51,2.72c-4.69,1.82-8.76,4.39-12.19,7.72-3.43,3.33-6.1,7.27-8.02,11.81-1.92,4.54-2.88,9.54-2.88,14.99s.95,10.32,2.88,14.9c1.92,4.6,4.59,8.55,8.02,11.88,3.43,3.33,7.47,5.91,12.11,7.72,4.64,1.82,9.79,2.72,15.44,2.72,5.25,0,10.32-.83,15.21-2.5,4.89-1.66,9.56-4.46,14-8.4l11.04,14.68c-5.44,4.45-11.81,7.79-19.07,10.07-7.26,2.27-14.68,3.4-22.25,3.4ZM1897.11,1343.16v-39.5h18.46v42.07l-18.46-2.57Z"/>
      </g>
      <g>
        <path class="st1" d="M820.86,1215.49v-105.94h43.59c9.38,0,17.43,1.49,24.14,4.47,6.71,2.97,11.88,7.29,15.51,12.94,3.63,5.65,5.45,12.41,5.45,20.28s-1.82,14.45-5.45,20.06c-3.63,5.59-8.8,9.94-15.51,13.02-6.71,3.08-14.76,4.61-24.14,4.61h-32.54l8.62-9.08v39.66h-19.68ZM840.54,1177.96l-8.62-9.69h31.63c8.68,0,15.21-1.84,19.6-5.53,4.39-3.68,6.58-8.85,6.58-15.51s-2.19-11.83-6.58-15.51c-4.38-3.68-10.92-5.53-19.6-5.53h-31.63l8.62-9.68v61.45Z"/>
        <path class="st1" d="M957.98,1198.84h59.78v16.65h-79.46v-105.94h77.34v16.65h-57.66v72.65ZM956.47,1153.59h52.67v16.2h-52.67v-16.2Z"/>
        <path class="st1" d="M1096.92,1217.01c-8.17,0-15.77-1.36-22.78-4.09s-13.08-6.56-18.24-11.5c-5.15-4.94-9.13-10.72-11.95-17.33-2.83-6.61-4.24-13.8-4.24-21.57s1.41-15.1,4.24-21.72c2.82-6.6,6.81-12.36,11.95-17.26,5.15-4.89,11.2-8.7,18.17-11.42,6.96-2.72,14.58-4.09,22.85-4.09s15.74,1.34,22.7,4.01c6.96,2.68,12.99,6.46,18.08,11.35,5.09,4.9,9.05,10.67,11.88,17.33,2.82,6.66,4.23,13.92,4.23,21.79s-1.41,15.11-4.23,21.72c-2.83,6.6-6.79,12.39-11.88,17.32-5.1,4.94-11.13,8.76-18.08,11.43-6.96,2.67-14.53,4.01-22.7,4.01ZM1096.92,1199.75c5.35,0,10.26-.91,14.76-2.72,4.49-1.82,8.4-4.39,11.73-7.72,3.33-3.33,5.93-7.27,7.79-11.81,1.86-4.54,2.8-9.54,2.8-14.99s-.91-10.44-2.72-14.98c-1.82-4.54-4.42-8.48-7.79-11.81-3.38-3.33-7.32-5.91-11.81-7.72-4.5-1.82-9.41-2.72-14.76-2.72s-10.32.91-14.91,2.72c-4.59,1.81-8.55,4.41-11.87,7.79-3.33,3.38-5.95,7.32-7.87,11.81-1.92,4.49-2.88,9.46-2.88,14.9s.95,10.3,2.88,14.83c1.92,4.54,4.54,8.5,7.87,11.88,3.33,3.38,7.28,5.98,11.87,7.79,4.59,1.82,9.56,2.72,14.91,2.72Z"/>
        <path class="st1" d="M1182.27,1215.49v-105.94h43.59c9.38,0,17.43,1.49,24.14,4.47,6.71,2.97,11.88,7.29,15.51,12.94,3.63,5.65,5.45,12.41,5.45,20.28s-1.82,14.45-5.45,20.06c-3.63,5.59-8.8,9.94-15.51,13.02-6.71,3.08-14.76,4.61-24.14,4.61h-32.54l8.62-9.08v39.66h-19.68ZM1201.95,1177.96l-8.62-9.69h31.63c8.68,0,15.21-1.84,19.6-5.53,4.39-3.68,6.58-8.85,6.58-15.51s-2.19-11.83-6.58-15.51c-4.38-3.68-10.92-5.53-19.6-5.53h-31.63l8.62-9.68v61.45Z"/>
        <path class="st1" d="M1299.72,1215.49v-105.94h19.68v89.3h55.39v16.65h-75.06Z"/>
        <path class="st1" d="M1417.62,1198.84h59.78v16.65h-79.46v-105.94h77.34v16.65h-57.66v72.65ZM1416.1,1153.59h52.67v16.2h-52.67v-16.2Z"/>
      </g>
    </g>
    <g>
      <path class="st1" d="M1136.37,975.84h35.68v9.05h-159.68v-9.05h42.34l-125.8-172.55-4.23,10.65v161.9h33.87v9.05h-138.51v-9.05h35.08v-337.11h-35.08v-9.05h136.09v9.05h-31.45v160.83l121.57-116.63v.53c16.93-15.97,25.4-27.33,25.4-34.08,0-4.26-1.92-7.1-5.75-8.52-3.84-1.42-9.58-2.13-17.24-2.13h-24.8v-9.05h139.12v9.05h-9.08c-27.43,0-48.79,5.86-64.11,17.58-15.33,13.49-32.05,29.12-50.21,46.87-18.14,17.75-37.5,37.1-58.06,58.05l154.84,214.62Z"/>
      <path class="st0" d="M1413.99,974.24h18.15l-13.91-14.38c-14.93,7.81-30.24,14.74-45.97,20.77-15.73,6.03-32.46,9.05-50.2,9.05-16.13,0-32.87-2.4-50.2-7.19-17.34-4.79-33.27-11.54-47.78-20.24-14.51-8.69-26.52-19.34-35.99-31.95-9.48-12.6-14.22-26.89-14.22-42.87,0-9.94,2.42-19.79,7.26-29.55,4.84-9.76,11.19-18.72,19.05-26.89,7.86-8.16,16.73-15.44,26.62-21.83,9.88-6.39,20.06-11.36,30.54-14.91-10.88-9.94-19.56-19.08-26-27.43-6.46-8.34-11.3-15.8-14.52-22.37-3.23-6.57-5.35-12.43-6.35-17.58-1.01-5.14-1.51-9.67-1.51-13.58,0-16.69,3.83-30.8,11.49-42.34,7.65-11.54,17.74-20.86,30.24-27.96,12.49-7.1,26.71-12.25,42.64-15.44,15.92-3.2,32.15-4.79,48.69-4.79,12.49,0,25,1.78,37.5,5.32,12.49,3.55,23.78,8.61,33.87,15.18,10.07,6.58,18.24,14.64,24.5,24.23,6.24,9.59,9.37,20.42,9.37,32.49,0,12.78-3.84,23.35-11.49,31.69-7.66,8.35-17.34,15.09-29.03,20.24-11.7,5.15-24.4,9.32-38.11,12.52-13.71,3.19-26.41,6.21-38.1,9.05l134.27,142.72c14.11-12.78,26.61-28.66,37.5-47.66,10.88-18.99,18.34-37.55,22.38-55.65h-38.1v-10.65h85.89v10.65h-38.71c-3.23,20.59-10.28,40.47-21.17,59.64-10.88,19.17-24.6,36.21-41.13,51.12l49.6,50.59h29.03v10.65h-136.09v-10.65ZM1250.08,884.24c0,10.3,1.81,20.69,5.44,31.15,3.63,10.48,8.97,19.89,16.03,28.23,7.05,8.35,15.73,15.18,26.01,20.5,10.28,5.33,22.07,7.99,35.38,7.99s26.41-2.04,39.32-6.12c12.9-4.08,25.19-8.96,36.89-14.64l-136.69-141.66c-3.23,4.98-6.15,10.57-8.77,16.77-2.63,6.22-4.95,12.7-6.96,19.44-2.02,6.75-3.63,13.49-4.84,20.23-1.21,6.75-1.81,12.78-1.81,18.11ZM1334.76,631.81c-19.35,0-35.18,5.06-47.48,15.18-12.31,10.12-18.45,23.88-18.45,41.27,0,4.98,1.21,11.45,3.63,19.44,2.42,7.99,6.66,14.83,12.7,20.5l38.1,37.81c9.68-5.32,18.75-9.94,27.22-13.85,8.47-3.9,15.82-8.16,22.08-12.78,6.25-4.61,11.28-10.29,15.12-17.04,3.83-6.74,5.75-15.44,5.75-26.09,0-8.52-1.01-16.69-3.02-24.5-2.02-7.8-5.24-14.64-9.68-20.5-4.44-5.86-10.49-10.56-18.15-14.11-7.66-3.54-16.93-5.33-27.82-5.33Z"/>
      <path class="st1" d="M1585.15,629.69h125.2c28.22,0,55.04,2.84,80.44,8.52,25.4,5.69,47.68,15.36,66.84,29.03,19.15,13.67,34.37,32.04,45.67,55.12,11.28,23.08,16.93,51.84,16.93,86.27s-5.35,61.87-16.03,84.41c-10.69,22.55-25.2,40.57-43.55,54.06-18.35,13.49-39.72,23.16-64.11,29.02-24.4,5.86-50.5,8.79-78.33,8.79h-133.06v-9.05h34.47v-336.57h-34.47v-9.58ZM1691,639.27v336.57c29.03,0,53.43-3.46,73.19-10.39,19.75-6.92,35.69-17.48,47.78-31.69,12.1-14.2,20.77-32.03,26.01-53.52,5.23-21.48,7.86-46.78,7.86-75.89,0-23.78-2.83-45.8-8.47-66.04-5.65-20.23-14.21-37.71-25.7-52.45-11.5-14.73-26.01-26.27-43.55-34.62-17.54-8.34-38.21-12.52-61.99-12.52l-15.12.53Z"/>
    </g>
  </g>
</svg>